<svg width="35" height="31" viewBox="0 0 35 31" fill="none" xmlns="http://www.w3.org/2000/svg">
<path d="M2.41538 30.048C1.26338 24.96 0.687375 20.544 0.687375 16.8C0.687375 11.424 1.93538 7.392 4.43138 4.70399C6.92738 1.91999 10.5754 0.527993 15.3754 0.527993V6.288C12.8794 6.288 11.0554 6.96 9.90338 8.304C8.84738 9.648 8.31938 11.664 8.31938 14.352V17.664H15.5194V30.048H2.41538ZM21.8554 30.048C20.7034 24.96 20.1274 20.544 20.1274 16.8C20.1274 11.424 21.3754 7.392 23.8714 4.70399C26.3674 1.91999 30.0154 0.527993 34.8154 0.527993V6.288C32.3194 6.288 30.4954 6.96 29.3434 8.304C28.2874 9.648 27.7594 11.664 27.7594 14.352V17.664H34.9594V30.048H21.8554Z" fill="black"/>
</svg>
